{"title":"War 2007 DVDRiP H264 AAC-Deemu","uid":5992605,"size":383072792,"categoryP":"video","categoryS":"movies","magnet":"?xt=urn:btih:07b543560cf7d27005df5990b6751806eee17b21&amp;dn=War+2007+DVDRiP+H264+AAC-Deemu&amp;tr=udp%3A%2F%2Ftracker.openbittorrent.com%3A80&amp;tr=udp%3A%2F%2Fopen.demonii.com%3A1337&amp;tr=udp%3A%2F%2Ftracker.coppersurfer.tk%3A6969&amp;tr=udp%3A%2F%2Fexodus.desync.com%3A6969","seeders":0,"leechers":0,"uploader":"treacherous_hawk","files":4,"time":1290942922,"description":"War 2007 DVDRiP H264 AAC-Deemu\n\nCover:\n===================================================================================  &lt;a href=&quot;\nhttp://img255.imageshack.us/img255/9458/tforgwarwarwarfree2007.jpg&quot; rel=&quot;nofollow&quot; target=&quot;_NEW&quot;&gt;\nhttp://img255.imageshack.us/img255/9458/tforgwarwarwarfree2007.jpg&lt;/a&gt;\n===================================================================================\n\nStoryline:\n===================================================================================\nAfter his partner Tom Wynne and family are killed apparently by the infamous and elusive assassin Rogue, FBI agent Jack Crawford becomes obsessed with revenge as his world unravels into a vortex of guilt and betrayal. Rogue eventually resurfaces to settle a score of his own, setting off a bloody crime war between Asian mob rivals Chang of the Triad\\\\\\'s and Yakuza boss Shiro. When Jack and Rogue finally come face to face, the ultimate truth of their pasts will be revealed.\n===================================================================================\n\nVideo Specs:\n===================================================================================\nFormat                           : AVC\nFormat/Info                      : Advanced Video Codec\nFormat profile                   : &lt;a class=&quot;__cf_email__&quot; href=&quot;/cdn-cgi/l/email-protection&quot; data-cfemail=&quot;c088a9a7a8808cf2eef1&quot;&gt;[email&amp;#160;protected]&lt;/a&gt;&lt;script cf-hash='f9e31' type=&quot;text/javascript&quot;&gt;\n/* &lt;![CDATA[ */!function(){try{var t=&quot;currentScript&quot;in document?document.currentScript:function(){for(var t=document.getElementsByTagName(&quot;script&quot;),e=t.length;e--;)if(t[e].getAttribute(&quot;cf-hash&quot;))return t[e]}();if(t&amp;&amp;t.previousSibling){var e,r,n,i,c=t.previousSibling,a=c.getAttribute(&quot;data-cfemail&quot;);if(a){for(e=&quot;&quot;,r=parseInt(a.substr(0,2),16),n=2;a.length-n;n+=2)i=parseInt(a.substr(n,2),16)^r,e+=String.fromCharCode(i);e=document.createTextNode(e),c.parentNode.replaceChild(e,c)}}}catch(u){}}();/* ]]&gt; */&lt;/script&gt;\nFormat settings, CABAC           : Yes\nFormat settings, ReFrames        : 4 frames\nCodec ID                         : avc1\nCodec ID/Info                    : Advanced Video Coding\nDuration                         : 1h 38mn\nBit rate mode                    : Variable\nBit rate                         : 428 Kbps\nMaximum bit rate                 : 2 516 Kbps\nWidth                            : 656 pixels\nHeight                           : 272 pixels\nDisplay aspect ratio             : 2.2:1\nOriginal display aspect ratio    : 2.2:1\nFrame rate mode                  : Constant\nFrame rate                       : 25.000 fps\nColor space                      : YUV\nChroma subsampling               : 4:2:0\nBit depth                        : 8 bits\nScan type                        : Progressive\nBits/(Pixel*Frame)               : 0.096\nStream size                      : 302 MiB (83%)\nTitle                            : Video\n===================================================================================\n\nAudio Specs:\n===================================================================================\nFormat                           : AAC\nFormat/Info                      : Advanced Audio Codec\nFormat version                   : Version 4\nFormat profile                   : LC\nFormat settings, SBR             : Yes\nFormat settings, PS              : No\nCodec ID                         : 40\nDuration                         : 1h 38mn\nBit rate mode                    : Variable\nBit rate                         : 86.2 Kbps\nMaximum bit rate                 : 109 Kbps\nChannel(s)                       : 2 channels\nChannel positions                : Front: L R\nSampling rate                    : 48.0 KHz\nStream size                      : 60.9 MiB (17%)\nLanguage                         : English\n===================================================================================\n\nScreens:\n===================================================================================  &lt;a href=&quot;\nhttp://img201.imageshack.us/img201/4363/vlcsnap2010112812h57m25.png&quot; rel=&quot;nofollow&quot; target=&quot;_NEW&quot;&gt;\nhttp://img201.imageshack.us/img201/4363/vlcsnap2010112812h57m25.png&lt;/a&gt;  &lt;a href=&quot;\nhttp://img249.imageshack.us/img249/2540/vlcsnap2010112812h58m14.png&quot; rel=&quot;nofollow&quot; target=&quot;_NEW&quot;&gt;\nhttp://img249.imageshack.us/img249/2540/vlcsnap2010112812h58m14.png&lt;/a&gt;  &lt;a href=&quot;\nhttp://img714.imageshack.us/img714/7218/vlcsnap2010112812h58m40.png&quot; rel=&quot;nofollow&quot; target=&quot;_NEW&quot;&gt;\nhttp://img714.imageshack.us/img714/7218/vlcsnap2010112812h58m40.png&lt;/a&gt;  &lt;a href=&quot;\nhttp://img40.imageshack.us/img40/6168/vlcsnap2010112812h59m03.png&quot; rel=&quot;nofollow&quot; target=&quot;_NEW&quot;&gt;\nhttp://img40.imageshack.us/img40/6168/vlcsnap2010112812h59m03.png&lt;/a&gt;  &lt;a href=&quot;\nhttp://img683.imageshack.us/img683/2109/vlcsnap2010112813h00m10.png&quot; rel=&quot;nofollow&quot; target=&quot;_NEW&quot;&gt;\nhttp://img683.imageshack.us/img683/2109/vlcsnap2010112813h00m10.png&lt;/a&gt;  &lt;a href=&quot;\nhttp://img18.imageshack.us/img18/8981/vlcsnap2010112813h01m13.png&quot; rel=&quot;nofollow&quot; target=&quot;_NEW&quot;&gt;\nhttp://img18.imageshack.us/img18/8981/vlcsnap2010112813h01m13.png&lt;/a&gt;  &lt;a href=&quot;\nhttp://img534.imageshack.us/img534/3406/vlcsnap2010112813h01m27.png&quot; rel=&quot;nofollow&quot; target=&quot;_NEW&quot;&gt;\nhttp://img534.imageshack.us/img534/3406/vlcsnap2010112813h01m27.png&lt;/a&gt;  &lt;a href=&quot;\nhttp://img135.imageshack.us/img135/696/vlcsnap2010112813h02m02.png&quot; rel=&quot;nofollow&quot; target=&quot;_NEW&quot;&gt;\nhttp://img135.imageshack.us/img135/696/vlcsnap2010112813h02m02.png&lt;/a&gt;  &lt;a href=&quot;\nhttp://img135.imageshack.us/img135/9345/vlcsnap2010112813h02m41.png&quot; rel=&quot;nofollow&quot; target=&quot;_NEW&quot;&gt;\nhttp://img135.imageshack.us/img135/9345/vlcsnap2010112813h02m41.png&lt;/a&gt;  &lt;a href=&quot;\nhttp://img257.imageshack.us/img257/3785/vlcsnap2010112813h05m03.png&quot; rel=&quot;nofollow&quot; target=&quot;_NEW&quot;&gt;\nhttp://img257.imageshack.us/img257/3785/vlcsnap2010112813h05m03.png&lt;/a&gt;\n===================================================================================\nEnJoY!!","torrent":{"xt":"urn:btih:07b543560cf7d27005df5990b6751806eee17b21","amp;dn":"War+2007+DVDRiP+H264+AAC-Deemu","amp;tr":["udp%3A%2F%2Ftracker.openbittorrent.com%3A80","udp%3A%2F%2Fopen.demonii.com%3A1337","udp%3A%2F%2Ftracker.coppersurfer.tk%3A6969","udp%3A%2F%2Fexodus.desync.com%3A6969"],"infoHash":"07b543560cf7d27005df5990b6751806eee17b21","infoHashBuffer":{"type":"Buffer","data":[7,181,67,86,12,247,210,112,5,223,89,144,182,117,24,6,238,225,123,33]},"announce":[],"urlList":[]}}